<svg width="32" height="32" viewBox="0 0 32 32" fill="none" xmlns="http://www.w3.org/2000/svg">
<rect x="6" y="15.4833" width="20" height="16.5161" fill="#272E35"/>
<rect x="28" y="15.8954" width="4" height="14.4516" rx="2" fill="#272E35"/>
<rect y="15.8954" width="4" height="14.4516" rx="2" fill="#272E35"/>
<path d="M26 13.9995C26 12.6863 25.7413 11.3859 25.2388 10.1727C24.7362 8.95942 23.9997 7.85703 23.0711 6.92844C22.1425 5.99986 21.0401 5.26326 19.8268 4.76072C18.6136 4.25817 17.3132 3.99951 16 3.99951C14.6868 3.99951 13.3864 4.25817 12.1732 4.76072C10.9599 5.26326 9.85752 5.99986 8.92893 6.92844C8.00035 7.85703 7.26375 8.95942 6.7612 10.1727C6.25866 11.3859 6 12.6863 6 13.9995L16 13.9995H26Z" fill="#272E35"/>
<rect width="2.0032" height="6.63914" rx="1" transform="matrix(0.814879 -0.579631 0.555486 0.831526 6.61914 1.74707)" fill="#272E35"/>
<rect width="2.01819" height="7.00598" rx="1" transform="matrix(0.816765 0.57697 -0.552801 0.833314 23.7305 0.595947)" fill="#272E35"/>
</svg>
