<svg width="48" height="48" viewBox="0 0 48 48" fill="none" xmlns="http://www.w3.org/2000/svg">
<path d="M24 16V26" stroke="#292D32" stroke-width="3" stroke-linecap="round" stroke-linejoin="round"/>
<path d="M16.0195 10.92C18.4195 9.7 21.1195 9 23.9995 9C33.6595 9 41.4995 16.84 41.4995 26.5" stroke="#292D32" stroke-width="3" stroke-linecap="round" stroke-linejoin="round"/>
<path d="M24 44C14.34 44 6.5 36.16 6.5 26.5C6.5 22.54 7.82 18.9 10.02 15.98" stroke="#292D32" stroke-width="3" stroke-linecap="round" stroke-linejoin="round"/>
<path d="M18 4H30" stroke="#292D32" stroke-width="3" stroke-miterlimit="10" stroke-linecap="round" stroke-linejoin="round"/>
<path d="M29.7998 37V34.68C29.7998 31.82 31.8398 30.64 34.3198 32.08L36.3198 33.24L38.3198 34.4C40.7998 35.84 40.7998 38.18 38.3198 39.62L36.3198 40.78L34.3198 41.94C31.8398 43.38 29.7998 42.2 29.7998 39.34V37Z" fill="#292D32"/>
</svg>
