<svg width="19" height="18" viewBox="0 0 19 18" fill="none" xmlns="http://www.w3.org/2000/svg">
<path d="M10 6H9" stroke="white" stroke-width="1.5" stroke-linecap="round" stroke-linejoin="round"/>
<path d="M17.5 6.75L17.5 11.75C17.5 13.75 16.75 14.25 13.75 14.25" stroke="white" stroke-width="1.5" stroke-linecap="round" stroke-linejoin="round"/>
<path d="M1.5 6.75L1.5 11.75C1.5 13.75 2.25 14.25 5.25 14.25" stroke="white" stroke-width="1.5" stroke-linecap="round" stroke-linejoin="round"/>
<path d="M10.75 9.12402L10.75 6.62598C10.75 5.10742 11.425 4.5 13.1125 4.5L15.1375 4.5C16.825 4.5 17.5 5.10742 17.5 6.62598L17.5 9.12402C17.5 10.6426 16.825 11.25 15.1375 11.25L13.1125 11.25C11.425 11.25 10.75 10.6426 10.75 9.12402Z" stroke="white" stroke-width="1.5" stroke-linecap="round" stroke-linejoin="round"/>
<path d="M1.5 9.12402L1.5 6.62598C1.5 5.10742 2.175 4.5 3.8625 4.5L5.8875 4.5C7.575 4.5 8.25 5.10742 8.25 6.62598L8.25 9.12402C8.25 10.6426 7.575 11.25 5.8875 11.25L3.8625 11.25C2.175 11.25 1.5 10.6426 1.5 9.12402Z" stroke="white" stroke-width="1.5" stroke-linecap="round" stroke-linejoin="round"/>
</svg>
