<svg width="14" height="18" viewBox="0 0 14 18" fill="none" xmlns="http://www.w3.org/2000/svg">
<path d="M13 5V13C13 16.2 12.25 17 9.25 17H4.75C1.75 17 1 16.2 1 13V5C1 1.8 1.75 1 4.75 1H9.25C12.25 1 13 1.8 13 5Z" stroke="#FF3087" stroke-width="1.5" stroke-linecap="round" stroke-linejoin="round"/>
<path d="M8.5 3.7998H5.5" stroke="#FF3087" stroke-width="1.5" stroke-linecap="round" stroke-linejoin="round"/>
<path d="M6.9999 14.6802C7.64193 14.6802 8.1624 14.125 8.1624 13.4402C8.1624 12.7554 7.64193 12.2002 6.9999 12.2002C6.35787 12.2002 5.8374 12.7554 5.8374 13.4402C5.8374 14.125 6.35787 14.6802 6.9999 14.6802Z" stroke="#FF3087" stroke-width="1.5" stroke-linecap="round" stroke-linejoin="round"/>
</svg>
