<svg width="48" height="48" viewBox="0 0 48 48" fill="none" xmlns="http://www.w3.org/2000/svg">
<path d="M20 33.9001H12.42C5.68 33.9001 4 32.2201 4 25.4801V13.4801C4 6.74006 5.68 5.06006 12.42 5.06006H33.48C40.22 5.06006 41.9 6.74006 41.9 13.4801V20.0001" stroke="#292D32" stroke-width="3" stroke-linecap="round" stroke-linejoin="round"/>
<path d="M20 42.94V33.9" stroke="#292D32" stroke-width="3" stroke-linecap="round" stroke-linejoin="round"/>
<path d="M4 26H24" stroke="#292D32" stroke-width="3" stroke-linecap="round" stroke-linejoin="round"/>
<path d="M13.4805 42.9399H20.0005" stroke="#292D32" stroke-width="3" stroke-linecap="round" stroke-linejoin="round"/>
<path d="M43.9996 25.6001V37.0201C43.9996 41.7601 42.8196 42.9401 38.0796 42.9401H30.9796C26.2396 42.9401 25.0596 41.7601 25.0596 37.0201V25.6001C25.0596 20.8601 26.2396 19.6801 30.9796 19.6801H38.0796C42.8196 19.6801 43.9996 20.8601 43.9996 25.6001Z" stroke="#292D32" stroke-width="3" stroke-linecap="round" stroke-linejoin="round"/>
<path d="M34.489 36.5H34.507" stroke="#292D32" stroke-width="3" stroke-linecap="round" stroke-linejoin="round"/>
</svg>
