<svg width="26" height="32" viewBox="0 0 26 32" fill="none" xmlns="http://www.w3.org/2000/svg">
<path d="M21.7149 16.9936C21.7309 15.7691 22.0563 14.5685 22.6607 13.5035C23.2652 12.4385 24.1292 11.5436 25.1723 10.9021C24.5096 9.95548 23.6353 9.17639 22.6189 8.62667C21.6026 8.07695 20.472 7.77173 19.317 7.73523C16.8517 7.47695 14.4626 9.21006 13.2064 9.21006C11.9268 9.21006 9.9926 7.76018 7.9117 7.8042C6.56497 7.84767 5.25247 8.23927 4.10211 8.94086C2.95174 9.64245 2.00275 10.6301 1.34761 11.8075C-1.49052 16.7207 0.627071 23.9422 3.34487 27.9147C4.70523 29.8591 6.29452 32.031 8.37543 31.9547C10.4108 31.8696 11.171 30.656 13.629 30.656C16.0622 30.656 16.7754 31.9547 18.8973 31.9063C21.0824 31.8696 22.4575 29.9516 23.7694 27.9881C24.7475 26.6026 25.5003 25.0712 26 23.4506C24.7306 22.914 23.6474 22.0155 22.8854 20.8672C22.1233 19.719 21.7163 18.3718 21.7149 16.9936Z" fill="#272E35"/>
<path d="M17.7059 5.12155C18.8969 3.69228 19.4839 1.85505 19.3422 0C17.5224 0.191033 15.8415 1.06084 14.6344 2.43604C14.0445 3.10736 13.5925 3.88835 13.3045 4.73439C13.0164 5.58043 12.8979 6.47494 12.9556 7.36681C13.8657 7.37619 14.766 7.17901 15.5888 6.7901C16.4116 6.40119 17.1355 5.83069 17.7059 5.12155Z" fill="#272E35"/>
</svg>
