<svg width="16" height="16" viewBox="0 0 16 16" fill="none" xmlns="http://www.w3.org/2000/svg">
<path d="M8.00016 14.6668C11.6821 14.6668 14.6668 11.6821 14.6668 8.00016C14.6668 4.31826 11.6821 1.3335 8.00016 1.3335C4.31826 1.3335 1.3335 4.31826 1.3335 8.00016C1.3335 11.6821 4.31826 14.6668 8.00016 14.6668Z" stroke="#FF3087" stroke-width="1.5" stroke-linecap="round" stroke-linejoin="round"/>
<path d="M5.33324 2H5.9999C4.6999 5.89333 4.6999 10.1067 5.9999 14H5.33324" stroke="#FF3087" stroke-width="1.5" stroke-linecap="round" stroke-linejoin="round"/>
<path d="M10 2C11.3 5.89333 11.3 10.1067 10 14" stroke="#FF3087" stroke-width="1.5" stroke-linecap="round" stroke-linejoin="round"/>
<path d="M2 10.6667V10C5.89333 11.3 10.1067 11.3 14 10V10.6667" stroke="#FF3087" stroke-width="1.5" stroke-linecap="round" stroke-linejoin="round"/>
<path d="M2 5.9999C5.89333 4.6999 10.1067 4.6999 14 5.9999" stroke="#FF3087" stroke-width="1.5" stroke-linecap="round" stroke-linejoin="round"/>
</svg>
