<svg width="48" height="48" viewBox="0 0 48 48" fill="none" xmlns="http://www.w3.org/2000/svg">
<path d="M14.5204 4H33.4604C34.7604 4 35.9204 4.04005 36.9604 4.18005C42.5005 4.80005 44.0005 7.40002 44.0005 14.52V27.16C44.0005 34.28 42.5005 36.88 36.9604 37.5C35.9204 37.64 34.7804 37.6801 33.4604 37.6801H14.5204C13.2204 37.6801 12.0604 37.64 11.0204 37.5C5.48045 36.88 3.98047 34.28 3.98047 27.16V14.52C3.98047 7.40002 5.48045 4.80005 11.0204 4.18005C12.0604 4.04005 13.2204 4 14.5204 4Z" fill="#292D32"/>
<path d="M27.1602 16.64H34.5201" stroke="white" stroke-width="3" stroke-linecap="round" stroke-linejoin="round"/>
<path d="M13.4805 28.22H13.5204H34.5405" stroke="white" stroke-width="3" stroke-linecap="round" stroke-linejoin="round"/>
<path d="M14 44H34" stroke="#292D32" stroke-width="3" stroke-linecap="round" stroke-linejoin="round"/>
<path d="M14.3894 16.6H14.4074" stroke="white" stroke-width="3" stroke-linecap="round" stroke-linejoin="round"/>
<path d="M20.989 16.6H21.007" stroke="white" stroke-width="3" stroke-linecap="round" stroke-linejoin="round"/>
</svg>
