<svg width="30" height="36" viewBox="0 0 30 36" fill="none" xmlns="http://www.w3.org/2000/svg">
<path d="M28.2 9.5V26.5C28.2 33.3 26.5 35 19.7 35H9.5C2.7 35 1 33.3 1 26.5V9.5C1 2.7 2.7 1 9.5 1H19.7C26.5 1 28.2 2.7 28.2 9.5Z" stroke="#292D32" stroke-width="2" stroke-linecap="round" stroke-linejoin="round"/>
<path d="M18.0002 6.95001H11.2002" stroke="#292D32" stroke-width="2" stroke-linecap="round" stroke-linejoin="round"/>
<path d="M14.6003 30.07C16.0556 30.07 17.2353 28.8903 17.2353 27.435C17.2353 25.9797 16.0556 24.8 14.6003 24.8C13.1451 24.8 11.9653 25.9797 11.9653 27.435C11.9653 28.8903 13.1451 30.07 14.6003 30.07Z" stroke="#292D32" stroke-width="2" stroke-linecap="round" stroke-linejoin="round"/>
</svg>
