<svg width="48" height="48" viewBox="0 0 48 48" fill="none" xmlns="http://www.w3.org/2000/svg">
<path d="M36.2797 43.24C34.5197 43.76 32.4397 44 29.9997 44H17.9997C15.5597 44 13.4797 43.76 11.7197 43.24C12.1597 38.04 17.4997 33.9399 23.9997 33.9399C30.4997 33.9399 35.8397 38.04 36.2797 43.24Z" stroke="#292D32" stroke-width="3" stroke-linecap="round" stroke-linejoin="round"/>
<path d="M30 4H18C8 4 4 8 4 18V30C4 37.56 6.28 41.7 11.72 43.24C12.16 38.04 17.5 33.9399 24 33.9399C30.5 33.9399 35.84 38.04 36.28 43.24C41.72 41.7 44 37.56 44 30V18C44 8 40 4 30 4ZM24 28.34C20.04 28.34 16.84 25.12 16.84 21.16C16.84 17.2 20.04 14 24 14C27.96 14 31.16 17.2 31.16 21.16C31.16 25.12 27.96 28.34 24 28.34Z" stroke="#292D32" stroke-width="3" stroke-linecap="round" stroke-linejoin="round"/>
<path d="M31.1599 21.16C31.1599 25.12 27.9598 28.34 23.9998 28.34C20.0398 28.34 16.8398 25.12 16.8398 21.16C16.8398 17.2 20.0398 14 23.9998 14C27.9598 14 31.1599 17.2 31.1599 21.16Z" fill="#292D32"/>
</svg>
