<?xml version="1.0" encoding="utf-8"?>
<!-- Generator: Adobe Illustrator 23.0.3, SVG Export Plug-In . SVG Version: 6.00 Build 0)  -->
<svg version="1.1" id="logosvg.com" xmlns="http://www.w3.org/2000/svg" xmlns:xlink="http://www.w3.org/1999/xlink" x="0px"
	 y="0px" viewBox="0 0 400 300" style="enable-background:new 0 0 400 300;" xml:space="preserve">
<style type="text/css">
	.st0{fill:#FFC629;}
</style>
<path id="logo" class="st0" d="M355.4,161.4c0.8,7.4,5.8,9.3,11.7,9.3c3.8,0,7.1,0.4,9.9-3.5c0.8-1.2,3.6-2.6,5.9-1.2
	c2.6,1.6,2.4,4.5,0.8,6.7c-3.8,5.2-9.6,6.5-16.6,6.5c-10.8,0-20.7-7.5-20.7-20c0-12.6,7-22.6,21-22.6c12.8,0,19.7,8.6,19.7,21.5v0.5
	c0,1.3-0.9,2.9-2.2,2.9H355.4L355.4,161.4z M378.7,153.9c-1.3-6.5-5.3-8.9-11.3-8.9c-6.2,0-10.7,2.5-12,8.9H378.7z M331.3,166.6
	c0,2.7,2,4,5,4c0.5,0,1,0.1,1.5,0c1.9-0.3,3.8,1.3,4.2,3.2c0.5,1.9-0.7,3.8-2.6,4.4c-1.3,0.4-2.8,0.9-4.8,0.9
	c-6.5-0.1-12.4-4.8-12.4-11.3v-43.4c0.1-2.4,2.1-4.4,4.5-4.5c2.4,0.1,4.4,2.1,4.5,4.5L331.3,166.6L331.3,166.6z M295.3,179.1
	c-5.3,0.2-10.3-2-13.7-6.1v0.7c0,2.3-2.2,4.2-4.5,4.2c-2.3,0-4.5-1.9-4.5-4.2v-49.3c0.1-2.4,2.1-4.4,4.5-4.5
	c2.4,0.1,4.4,2.1,4.5,4.5v18.6c3.4-4,8.4-6.2,13.7-6c10.4,0,19.5,8.5,19.5,21C314.7,170.7,305.7,179.1,295.3,179.1z M294.4,146.3
	c-6.1,0-12.8,3.1-12.8,12c0,9,6.8,12,12.8,12c6.8,0,12-4.6,12-12c0.3-6.4-4.6-11.8-11-12C295.1,146.3,294.8,146.3,294.4,146.3z
	 M262,174.2c-0.1,2.4-2.1,4.4-4.5,4.5c-2.4-0.2-4.4-2.1-4.5-4.5v-19.1c0-5.9-3.9-9.1-9-9.1c-6.5,0-9.1,4.1-9.1,13v15.1
	c-0.1,2.4-2.1,4.4-4.5,4.5c-2.4-0.2-4.4-2.1-4.5-4.5v-19.1c0-5.9-3.2-9.5-8.3-9.5c-6.4,0-9.8,4.6-9.8,13.4v15.1
	c-0.1,2.4-2.1,4.4-4.5,4.5c-2.4-0.2-4.4-2.1-4.5-4.5v-31.6c0.2-2.4,2.1-4.4,4.5-4.5c2.4,0.2,4.4,2.1,4.5,4.5c2.9-3.5,6.3-5.3,12-5.3
	c5.7,0,9.5,2.4,12.1,7c3.2-4.5,7.8-6.9,14.4-6.9c8.2,0,15.8,6.7,15.8,16.1L262,174.2L262,174.2z M179.1,174.6
	c-3.3,3.5-5.5,4.6-12.7,4.6c-9.6,0-15.9-6.2-15.9-16.2v-20.4c0.1-2.4,2.1-4.4,4.5-4.5c2.4,0.1,4.4,2.1,4.5,4.5v18.7
	c0,6.5,3,9.9,8.8,9.9c4.8,0,8.7-0.8,10.8-6.6c0,0,0-3.9,0-7.2v-14.8c0.1-2.4,2.1-4.4,4.5-4.5c2.4,0.1,4.4,2.1,4.5,4.5v32
	c0,2.3-2.2,4.2-4.5,4.2C181.4,178.7,179.1,176.8,179.1,174.6L179.1,174.6z M123.6,179.2c-5.3,0.2-10.3-2-13.7-6.1v0.7
	c0,2.3-2.2,4.2-4.5,4.2c-2.3,0-4.5-1.9-4.5-4.2v-49.3c0.1-2.4,2.1-4.4,4.5-4.5c2.4,0.1,4.4,2.1,4.5,4.5v18.6c3.4-4,8.4-6.2,13.7-6
	c10.4,0,19.5,8.5,19.5,21C143,170.7,133.9,179.1,123.6,179.2L123.6,179.2z M122.7,146.3c-6.1,0-12.8,3.1-12.8,12c0,9,6.8,12,12.8,12
	c6.8,0,12-4.6,12-12c0.3-6.4-4.6-11.8-11-12C123.4,146.3,123.1,146.3,122.7,146.3z M80.2,147.9c0.8,1.4,0.8,3,0,4.4L65.3,178
	c-0.8,1.4-2.2,2.2-3.8,2.2H31.7c-1.6,0-3-0.8-3.8-2.2l-14.9-25.7c-0.8-1.4-0.8-3,0-4.4l14.9-25.7c0.8-1.4,2.2-2.2,3.8-2.2h29.8
	c1.6,0,3,0.8,3.8,2.2C65.3,122.2,80.2,147.9,80.2,147.9z M61.6,153.9c2.1,0,3.7-1.7,3.7-3.8s-1.7-3.8-3.7-3.8h-30
	c-2.1,0-3.8,1.7-3.8,3.8c0,2.1,1.7,3.8,3.8,3.8H61.6L61.6,153.9z M51.1,166.6c2,0,3.7-1.7,3.7-3.8c0-2.1-1.7-3.8-3.7-3.8H42
	c-2,0-3.7,1.7-3.7,3.8c0,2.1,1.7,3.8,3.7,3.8H51.1L51.1,166.6z M38.3,133.5c-2.1,0-3.7,1.7-3.7,3.8s1.7,3.8,3.7,3.8h16.5
	c2.1,0,3.7-1.7,3.7-3.8s-1.7-3.8-3.7-3.8H38.3z"/>
</svg>
